<?xml version="1.0" encoding="UTF-8" standalone="no"?>
<svg
   class="svg-icon"
   style="overflow:hidden;fill:currentColor"
   viewBox="0 0 256 256"
   version="1.1"
   id="svg1"
   sodipodi:docname="maintenance.svg"
   width="256"
   height="256"
   inkscape:version="1.3.2 (1:1.3.2+202311252150+091e20ef0f)"
   xmlns:inkscape="http://www.inkscape.org/namespaces/inkscape"
   xmlns:sodipodi="http://sodipodi.sourceforge.net/DTD/sodipodi-0.dtd"
   xmlns="http://www.w3.org/2000/svg"
   xmlns:svg="http://www.w3.org/2000/svg">
  <defs
     id="defs1" />
  <sodipodi:namedview
     id="namedview1"
     pagecolor="#505050"
     bordercolor="#eeeeee"
     borderopacity="1"
     inkscape:showpageshadow="0"
     inkscape:pageopacity="0"
     inkscape:pagecheckerboard="0"
     inkscape:deskcolor="#505050"
     inkscape:zoom="2.296875"
     inkscape:cx="91.428571"
     inkscape:cy="154.9932"
     inkscape:window-width="2474"
     inkscape:window-height="1376"
     inkscape:window-x="0"
     inkscape:window-y="27"
     inkscape:window-maximized="1"
     inkscape:current-layer="svg1" />
  <path
     d="m 202.66664,21.337375 a 10.666663,10.666663 0 0 0 -10.66667,10.666663 v 58.239974 l -10.66666,7.14667 V 32.004038 a 10.666663,10.666663 0 0 0 -21.33332,0 v 65.386644 l -10.66667,-7.14667 V 32.004038 a 10.666663,10.666663 0 0 0 -21.33332,0 v 63.999974 a 10.666663,10.666663 0 0 0 4.8,8.853328 l 27.19999,18.23999 v 100.90663 a 10.666663,10.666663 0 0 0 21.33332,0 V 123.09733 l 27.19999,-18.23999 a 10.666663,10.666663 0 0 0 4.8,-8.853328 V 32.004038 A 10.666663,10.666663 0 0 0 202.66664,21.337375 Z m -106.66663,0 A 53.333311,53.333311 0 0 0 42.6667,74.670692 v 63.999968 a 10.666663,10.666663 0 0 0 10.66666,10.66666 h 31.99999 v 74.66664 a 10.666663,10.666663 0 0 0 21.33332,0 V 32.004038 A 10.666663,10.666663 0 0 0 96.00001,21.337375 Z M 85.33335,128.004 H 64.00002 V 74.670692 a 31.999987,31.999987 0 0 1 21.33333,-30.18666 z"
     id="path1"
     style="stroke-width:0.25" />
</svg>
