<?xml version="1.0" encoding="UTF-8" standalone="no"?>
<svg
   class="svg-icon"
   style="overflow:hidden;fill:currentColor"
   viewBox="0 0 256 256"
   version="1.1"
   id="svg2"
   sodipodi:docname="room.svg"
   width="256"
   height="256"
   inkscape:version="1.3.2 (1:1.3.2+202311252150+091e20ef0f)"
   xmlns:inkscape="http://www.inkscape.org/namespaces/inkscape"
   xmlns:sodipodi="http://sodipodi.sourceforge.net/DTD/sodipodi-0.dtd"
   xmlns="http://www.w3.org/2000/svg"
   xmlns:svg="http://www.w3.org/2000/svg">
  <defs
     id="defs2" />
  <sodipodi:namedview
     id="namedview2"
     pagecolor="#505050"
     bordercolor="#eeeeee"
     borderopacity="1"
     inkscape:showpageshadow="0"
     inkscape:pageopacity="0"
     inkscape:pagecheckerboard="0"
     inkscape:deskcolor="#505050"
     inkscape:zoom="1.6241359"
     inkscape:cx="120.67956"
     inkscape:cy="221.04062"
     inkscape:window-width="2474"
     inkscape:window-height="1376"
     inkscape:window-x="0"
     inkscape:window-y="27"
     inkscape:window-maximized="1"
     inkscape:current-layer="svg2" />
  <g
     id="g2"
     transform="translate(-48,-120)"
     style="fill:#000000;fill-opacity:1">
    <path
       d="m 277.1,224 h -0.2 c -6,0 -10.9,4.9 -10.9,10.9 0,0.6 -0.5,1.1 -1.1,1.1 H 87.1 C 86.5,236 86,235.5 86,234.9 86,228.9 81.1,224 75.1,224 h -0.2 c -6,0 -10.9,4.9 -10.9,10.9 v 90.2 c 0,6 4.9,10.9 10.9,10.9 h 0.2 c 6,0 10.9,-4.9 10.9,-10.9 V 322 c 0,-1.1 0.9,-2 2,-2 h 176 c 1.1,0 2,0.9 2,2 v 3.1 c 0,6 4.9,10.9 10.9,10.9 h 0.2 c 6,0 10.9,-4.9 10.9,-10.9 v -90.2 c 0,-6 -4.9,-10.9 -10.9,-10.9 z"
       id="path1"
       style="stroke-width:0.25;fill:#000000;fill-opacity:1" />
    <path
       d="m 90,227 h 11.25 c 1.1,0 2,-0.9 2,-2 v -6.5 c 0,-4.4 3.6,-8 8,-8 H 160 c 4.4,0 8,3.6 8,8 v 6.5 c 0,1.1 0.9,2 2,2 h 12 c 1.1,0 2,-0.9 2,-2 v -6.5 c 0,-4.4 3.6,-8 8,-8 h 48.75 c 4.4,0 8,3.6 8,8 v 6.5 c 0,1.1 0.9,2 2,2 H 262 c 2.2,0 4,-1.8 4,-4 v -47 c 0,-8.8 -7.2,-16 -16,-16 H 102 c -8.8,0 -16,7.2 -16,16 v 47 c 0,2.2 1.8,4 4,4 z"
       id="path2"
       style="stroke-width:0.25;fill:#000000;fill-opacity:1" />
  </g>
</svg>
