<?xml version="1.0" encoding="UTF-8" standalone="no"?>
<svg
   class="svg-icon"
   style="overflow:hidden;fill:currentColor"
   viewBox="0 0 256 256"
   version="1.1"
   id="svg1"
   sodipodi:docname="transportation.svg"
   width="256"
   height="256"
   inkscape:version="1.3.2 (1:1.3.2+202311252150+091e20ef0f)"
   xmlns:inkscape="http://www.inkscape.org/namespaces/inkscape"
   xmlns:sodipodi="http://sodipodi.sourceforge.net/DTD/sodipodi-0.dtd"
   xmlns="http://www.w3.org/2000/svg"
   xmlns:svg="http://www.w3.org/2000/svg">
  <defs
     id="defs1" />
  <sodipodi:namedview
     id="namedview1"
     pagecolor="#505050"
     bordercolor="#eeeeee"
     borderopacity="1"
     inkscape:showpageshadow="0"
     inkscape:pageopacity="0"
     inkscape:pagecheckerboard="0"
     inkscape:deskcolor="#505050"
     inkscape:zoom="2.296875"
     inkscape:cx="125.38776"
     inkscape:cy="144.97959"
     inkscape:window-width="2474"
     inkscape:window-height="1376"
     inkscape:window-x="0"
     inkscape:window-y="27"
     inkscape:window-maximized="1"
     inkscape:current-layer="svg1" />
  <path
     d="m 232.25991,93.475117 h -20.64224 a 5.5193179,5.5193179 0 0 0 -2.64927,0.662319 L 199.69594,67.313553 A 26.603113,26.603113 0 0 0 171.76819,45.236276 H 84.231814 A 27.044657,27.044657 0 0 0 56.524842,67.313553 L 47.252388,94.247831 A 5.2985452,5.2985452 0 0 0 44.382342,93.475117 H 23.740088 A 5.6297042,5.6297042 0 0 0 19.766185,95.020535 5.5193179,5.5193179 0 0 0 18,98.994441 v 4.746609 a 5.6297042,5.6297042 0 0 0 5.740088,5.51931 l 7.83743,1.65579 a 32.12243,32.12243 0 0 0 -3.86352,15.67486 l -2.98043,31.68088 a 23.29152,23.29152 0 0 0 0,2.75966 v 39.95987 a 10.045159,10.045159 0 0 0 10.265928,9.82439 h 16.116413 a 10.045159,10.045159 0 0 0 10.265927,-9.82439 v -12.2529 H 195.2805 v 12.2529 a 10.045159,10.045159 0 0 0 10.26592,9.82439 h 15.56449 a 10.045159,10.045159 0 0 0 10.26594,-9.82439 v -38.19369 a 10.155545,10.155545 0 0 0 0,-1.76618 23.070749,23.070749 0 0 0 0,-2.75966 l -2.87005,-31.68088 a 34.109386,34.109386 0 0 0 -3.86355,-15.67486 l 7.61666,-1.21425 A 5.6297042,5.6297042 0 0 0 238,104.18259 v -5.188149 a 5.5193179,5.5193179 0 0 0 -1.76617,-3.973906 5.6297042,5.6297042 0 0 0 -3.97392,-1.545418 z M 63.368792,87.845409 70.212749,70.404372 c 0.662312,-3.532368 2.207727,-4.0843 4.415453,-6.843958 H 181.48219 c 2.20773,2.759658 3.64275,3.53236 4.30506,6.843958 l 6.84397,17.882586 2.53889,9.713999 A 16.889113,16.889113 0 0 1 178.39138,110.69538 H 77.719018 A 17.109886,17.109886 0 0 1 60.829906,97.559417 Z m 4.857003,82.789751 a 14.902158,14.902158 0 1 1 0,-29.69392 14.902158,14.902158 0 1 1 0,29.69392 z m 86.542895,-11.03864 a 4.4154544,4.4154544 0 0 1 -4.52584,4.41547 h -43.93376 a 4.5258407,4.5258407 0 0 1 -4.63623,-4.41547 v -12.36326 a 4.5258407,4.5258407 0 0 1 4.63623,-4.41546 h 44.15453 a 4.5258407,4.5258407 0 0 1 4.52584,4.41546 v 12.47366 z m 33.11591,11.03864 a 14.902158,14.902158 0 1 1 15.56448,-14.90215 15.122931,15.122931 0 0 1 -15.56448,14.90215 z"
     id="path1"
     style="fill:#000000;fill-opacity:1;stroke-width:0.210026" />
</svg>
